<?xml version="1.0" encoding="UTF-8"?>
<svg id="_圖層_1" data-name="圖層 1" xmlns="http://www.w3.org/2000/svg" viewBox="0 0 181.53 226.04">
  <defs>
    <style>
      .cls-1 {
        fill: #070304;
      }

      .cls-2 {
        fill: #090707;
      }

      .cls-3 {
        fill: #070203;
      }

      .cls-4 {
        fill: #090606;
      }

      .cls-5 {
        fill: #0e0d0d;
      }

      .cls-6 {
        fill: #070102;
      }
    </style>
  </defs>
  <path class="cls-6" d="M161.98,48.06c-1.38,1.85-3.02,2.23-4.4,0-.85-2.98-1.95-2.98-3.3,0-32.08-13.09-83.42-6.54-117.65-1.02-4.79,3.07-6.63,8.54-5.5,16.4-5.27,41.07-7.23,86.18-6.65,127.63.06,4.49,1.58,8.4,1.19,13.32-.28,3.54-2.37,12.47-7.71,10.23-8.1-3.4-2.6-15.08-2.18-21.5.79-11.98-3.08-23.7-2.29-35.95,1.61-25.14,4.27-50.36,6.64-75.28-.26-10.25.12-24,3.72-33.76,1.62-4.38,3.02-7.09,8.38-8.25,2.34-.71,9.76-3.07,11.55-3.07h17.59c.91,0,4.47-1.75,6.72-1.94,6.76-.55,13.69.8,20.22-1.14l1.39,1.71c-5.52,3.88,8.55,2.8,9.12,1.67-1.49-5.49-1.72-10.88-.69-16.17-7.69-2.14-8.18-.29-1.47,5.54,1.58,4.4-4.42,10.23-8.35,7.26-.33-4.08-1.52-17.78.48-20.56,1.32-1.82,11.67-2.37,12.68,2.65,1.45,7.24-4.34,17.83,6.06,18.95,13.9,1.49,44.28-3.07,53.22,9.88.84,1.22.78,2.35,1.23,3.42Z"/>
  <path class="cls-6" d="M98.21,89.05c-.82.28-2.85,1.19-3.32,1.75-4.73,5.57-.24,22.7-1.25,30.27-1.28,4.06-5.9,6.73-9.26,2.89-5.15-5.89,3.92-24.79,1.78-33.19-.16-.62-2.42-1.73-2.79-1.73h-44.53c-.31-10.99,13.84-5.31,20.89-7.17v-23.06c0-3.09,4.65-5.31,6.86-.25,2.8,6.39-2.9,20.55,8.05,22.21,15.5,2.36,10.44-5.47,11.48-14.79.53-4.79,3.38-9.6,7.75-12.24,4.98-3.02,37.43-7.38,39.39-1.96.29.81.39,4.14.1,4.43-1.8,1.77-24,1.48-27.93,2.14-7.83,1.33-13.52,19.4-9.47,22.05,1.04.68,14.51.78,15.31.3,2.23-1.34,2.55-16.66,9.51-17.05,5.56,3.07.96,6.73-.56,10.02-.87,3.14-1.37,6.68.35,9.62,3.23.75,4.69,1.9,2.87,5.04-8.44-.09-16.85.14-25.22.71Z"/>
  <path class="cls-1" d="M157.58,48.06c1.04,1.36,2.5,1.36,4.4,0,4.8,11.4,2.08,45.68,2.15,59.99.16,32.78-.05,66.31.11,99.41-.25,5.47-9.3,8.8-10.05,2.01-.53-4.76,3.49-8.39,3.48-13.34,0-7.61-2.86-15.08-2.2-23.48.55-7.09-.38-10.48-.13-16.43.17-3.88,2.28-7.59,2.05-12.19-.29-5.79-2.7-11.66-3.16-17.53-.92-11.84,2.25-21.89,2.14-33.86-.13-14.46-.44-29.91-2.09-44.57,1.57-1.91,1.87-2.14,3.3,0Z"/>
  <path class="cls-3" d="M121.85,167.95c.93-.26,1.56-1.6,1.69-2.56,1.33-9.87-25.74-7.61-27-13.69-.99-4.8,9.06-3.63,13.12-3.13,5.7.71,11.99,3.95,16.42,7.29,2.59,1.95,7.9,10.35,10.13,2.97,6.39-21.18-19.29-15.24-30.61-20.82-1.65-.81-3.34-1.84-2.99-3.86,8.49-2.77,38.16.58,40.44,9.94,1.02,4.21-.84,6.73-.81,10.08.03,3.06,1.83,7.12.88,10-.87,2.64-8.21,4.64-8.71,10.44-.75,8.57,11.87,28.96,2.37,35.94-11.99,8.82-6.42-15.19-6.7-20.56-.12-2.23-.95-7.76-1.55-9.82-2.73-9.25-8.38-4.86-15.48-4.98-5.08-.09-16.33-1.4-17.03-7.24,6.53-1.16,20.34,1.57,25.84,0Z"/>
  <path class="cls-3" d="M55.32,211.5c-.81,4.17-9.72,6.15-10.92-1.09-2.13-12.8,3.33-27.51,3.31-39.89-.01-10.46-10.74-20.36.31-30.89,4.67-4.45,30.2-14.19,27.03-4.09-1.08,3.44-22.43,4.38-24.96,15.73-.96,4.32-.72,9,4.54,10.45,8.31-7.57,14.54-15.76,27.09-17.34,1.19,12.04-19.13,10.67-17.59,22.54h23.09c.22,8.81-16.65,6.37-23.69,6.2-3.11-.08-6.16-2.32-8.2.46-1.53,11.26,2.06,27.29,0,37.91Z"/>
  <path class="cls-4" d="M112.51,96.23c2.27-.44,2.54,1.05,3.5,2.36,2.82,3.86,10.32,24.53,4.59,26.25-12.68,3.79-7.05-23.05-8.09-28.61Z"/>
  <path class="cls-2" d="M53.27,123.75c-1.63-2.39,8.69-27.24,12.48-26.5,4.8.94-1.76,20.81-4,23.92-1.69,2.34-6.31,5.75-8.48,2.58Z"/>
  <path class="cls-4" d="M120.2,73.68c-.48,1.41.6,9.22,1.1,9.22h22.54c3.01,0,.57,5.34-4.47,6.08-12.15,1.79-28.53-1.19-41.16.07,5.33-1.8,21.41-.3,23.09-1.5,2.58-1.83-1.54-3.53-1.72-3.9-2.16-4.41-1.08-6.28.62-9.97Z"/>
  <path class="cls-5" d="M32.23,39.86c-4.82,1.72-3.39,3.48-3.83,4.11-.77,1.1-2.31-.05-2.59.19-.78.68-2.98,11.61-3.34,13.75-1.28,7.56-1.6,16.3-2.33,23.96-1.9-2.33-1.29-6.92-1.09-9.73.43-6.03,2.95-27.47,7.71-30.73,2.21-1.51,3.64-1,5.47-1.56Z"/>
  <path class="cls-5" d="M36.63,47.03c-5.98,4.73-3.54,9.11-4.43,14.88-.25,1.66-1.06,1.43-1.07,1.52l-.98-12.84c.69-1.71,2.43-.49,2.93-.82,1.1-.72.07-2.18,3.55-2.74Z"/>
  <path class="cls-6" d="M88.31,33.71c2.86-1.54,7.21-2.5,6.37-6.55-.09-.42-5.36-5.18-6.37-6.25,2.83-3.9,7.68-2.36,12.1-2.57.41,2.62-.88,5.03-.96,7.59-.06,2.1,1.86,11.33,1.58,11.87-1.7,3.28-14.22,2.91-17.09.03.63,4.49-5.94-.22-7.74,1.01,2.55,4.79-2.47.27-4.39-2.05,3.72-.37,10.44.49,13.77-.5,2.03-.61,2.2-2.3,2.72-2.58Z"/>
  <path class="cls-6" d="M110.29,36.81c.13.1-.09,1.85.56,2.05,2.64.82,3.26-.17,1.65-2.07l25.22.05c.74.84.89,5.16-.47,5.08-1.84-5.5-6.57-1.48-9.88-1.49-1.49,0-2.95-1.06-4.45-1.06-3.62,0-13.27,1.85-14.81-1.06-.84-1.58,1.37-2.11,2.17-1.5Z"/>
  <path class="cls-6" d="M154.28,48.06c-.34-2.99-3.91-3.29.56-6.15.62,2.66,2.19,1.17,3.29,1.98,3.05,2.26.04,2.19-.55,4.16,1.68-.13,2.55-1.39,4.4,0-1.15,4.01.26,7.39,1.09,11.28l-2.18-1.05c-.4.32,1.34,4.48-2.75,3.1-2.29-.77-1.22-11.09-.55-13.33-1.3.1-.97.95-3.3,0Z"/>
  <path class="cls-6" d="M50.93,39.85c3.48,2.86-.3-3.33,3.29-2.03,1.92,8.63-12.93,5.07-9.88,1.02.32-.43,3.83,2.81,5.49,2.04.15-.07-1.6-2.86,1.09-3.07.14.57-.18,1.87.02,2.04Z"/>
  <path class="cls-6" d="M38.77,40.96c.11.14-1.14,1.56-.86,1.86.48.51,2.47-.61,2.01,1.13h-7.69c-.63-2.87,1.14-1.99,3.32-2.04-3.34-3.3,2.6-1.76,3.22-.95Z"/>
  <path class="cls-6" d="M68.51,38.84c2.36,2.38-1.98,3.31-4.39,3.06l2.76-3.06c.6.11,1.47-.17,1.63,0Z"/>
  <path class="cls-6" d="M142.19,40.89c2.73,1.18,3.18-4.97,5.48-3.08.17.14,1.32,3.86,1.11,4.09-2.08,2.29-1.87-2.64-3.28-2.04l-.57,3.08c-5.57-3.88-3.28.22-4.38-.01-2.89-.63.47-4.48,1.09-5.13l.55,3.09Z"/>
</svg>